<svg xmlns="http://www.w3.org/2000/svg" viewBox="0 0 496 512">
  <path fill="#1DB954" d="M248 8C111 8 0 119 0 256s111 248 248 248 248-111 
  248-248S385 8 248 8zm121.7 364.9c-5.2 8.5-16.3 
  11.1-24.8 5.9-67.8-41.5-153.2-51.1-253.9-28.6-9.5 
  2.1-19-3.9-21.1-13.4-2.1-9.5 3.9-19 13.4-21.1 
  109.6-24.4 205.5-13.1 281.1 32.7 8.5 5.2 11.1 
  16.3 5.3 24.5zm35.5-81.3c-6.5 10.7-20.4 14.1-31 
  7.6-77.6-47.1-196.1-60.9-288.3-34-11.7 3.4-24-3.2-27.4-14.9-3.4-11.7 
  3.2-24 14.9-27.4 102.6-30.5 231.2-15.2 
  319.6 39.2 10.7 6.5 14.1 20.5 7.7 31.1zm2.8-84.7C322.5 
  154.8 173.2 149.9 97.2 172c-14 4.1-28.7-4-32.8-18-4.1-14 
  4-28.7 18-32.8 91.1-26.5 256.7-20.7 
  351.1 43.3 12.3 8 15.9 24.3 7.9 36.6-8 12.3-24.3 
  15.9-36.6 7.9z"/>
</svg>
